<svg width="12" height="12" viewBox="0 0 12 12" fill="none" xmlns="http://www.w3.org/2000/svg">
<path d="M8.93099 3.64974V2.23958C8.93099 2.11492 8.88147 1.99536 8.79332 1.90721C8.70516 1.81905 8.5856 1.76953 8.46094 1.76953H2.35026C2.10093 1.76953 1.86181 1.86858 1.68551 2.04488C1.5092 2.22119 1.41016 2.4603 1.41016 2.70964C1.41016 2.95897 1.5092 3.19809 1.68551 3.37439C1.86181 3.55069 2.10093 3.64974 2.35026 3.64974H9.40104C9.52571 3.64974 9.64527 3.69926 9.73342 3.78741C9.82157 3.87557 9.87109 3.99513 9.87109 4.11979V6M9.87109 6H8.46094C8.21161 6 7.97249 6.09905 7.79618 6.27535C7.61988 6.45165 7.52083 6.69077 7.52083 6.9401C7.52083 7.18944 7.61988 7.42855 7.79618 7.60486C7.97249 7.78116 8.21161 7.88021 8.46094 7.88021H9.87109C9.99576 7.88021 10.1153 7.83069 10.2035 7.74253C10.2916 7.65438 10.3411 7.53482 10.3411 7.41016V6.47005C10.3411 6.34539 10.2916 6.22583 10.2035 6.13768C10.1153 6.04952 9.99576 6 9.87109 6Z" stroke="#B0E4DD" stroke-opacity="0.3" stroke-width="0.940104" stroke-linecap="round" stroke-linejoin="round"/>
<path d="M1.41016 2.70959V9.29032C1.41016 9.53966 1.5092 9.77877 1.68551 9.95508C1.86181 10.1314 2.10093 10.2304 2.35026 10.2304H9.40104C9.52571 10.2304 9.64527 10.1809 9.73342 10.0928C9.82157 10.0046 9.87109 9.88504 9.87109 9.76038V7.88017" stroke="#B0E4DD" stroke-opacity="0.3" stroke-width="0.940104" stroke-linecap="round" stroke-linejoin="round"/>
</svg>
