<svg width="14" height="14" viewBox="0 0 14 14" fill="none" xmlns="http://www.w3.org/2000/svg">
<g clip-path="url(#clip0_554_14127)">
<path d="M11.6668 7.58343C11.6668 10.5001 9.62516 11.9584 7.1985 12.8043C7.07142 12.8473 6.93339 12.8453 6.80766 12.7984C4.37516 11.9584 2.3335 10.5001 2.3335 7.58343V3.5001C2.3335 3.34539 2.39495 3.19702 2.50435 3.08762C2.61375 2.97822 2.76212 2.91677 2.91683 2.91677C4.0835 2.91677 5.54183 2.21677 6.55683 1.3301C6.68041 1.22452 6.83762 1.1665 7.00016 1.1665C7.16271 1.1665 7.31991 1.22452 7.4435 1.3301C8.46433 2.2226 9.91683 2.91677 11.0835 2.91677C11.2382 2.91677 11.3866 2.97822 11.496 3.08762C11.6054 3.19702 11.6668 3.34539 11.6668 3.5001V7.58343Z" stroke="#B0E4DD" stroke-opacity="0.2" stroke-width="1.16667" stroke-linecap="round" stroke-linejoin="round"/>
<path d="M5.25 7.00016L6.41667 8.16683L8.75 5.8335" stroke="#B0E4DD" stroke-opacity="0.2" stroke-width="1.16667" stroke-linecap="round" stroke-linejoin="round"/>
</g>
<defs>
<clipPath id="clip0_554_14127">
<rect width="14" height="14" fill="white"/>
</clipPath>
</defs>
</svg>
