<svg width="14" height="14" viewBox="0 0 14 14" fill="none" xmlns="http://www.w3.org/2000/svg">
<path d="M2.2578 11.2427C3.765 12.678 5.5596 12.1038 6.2778 11.5223C6.6486 11.2217 6.816 11.0273 6.9594 10.8833C7.4616 10.4171 7.4298 9.95026 7.1034 9.57704C6.972 9.42763 6.1338 8.62239 5.3298 7.79675C4.9134 7.38033 4.6266 7.08632 4.3806 6.8487C4.0524 6.52109 3.765 6.14547 3.3342 6.15627C2.9394 6.15627 2.6526 6.50429 2.2932 6.86371C1.8804 7.27653 1.5756 7.79675 1.4682 8.26358C1.1448 9.62744 1.6476 10.5965 2.2578 11.2427ZM2.2578 11.2427L0.75 12.75M11.2422 2.25908C9.7344 0.822604 7.9458 1.40703 7.2282 1.98906C6.8562 2.29028 6.6894 2.48469 6.5454 2.62869C6.0432 3.09552 6.075 3.56234 6.402 3.93556C6.4488 3.98956 6.588 4.12757 6.783 4.32198M11.2422 2.25908C11.8524 2.90531 12.3618 3.88516 12.0384 5.25023C11.9304 5.71705 11.6256 6.23727 11.2128 6.65069C10.854 7.00951 10.5666 7.35813 10.1718 7.35813C9.741 7.36893 9.5178 7.05692 9.1884 6.7293M11.2422 2.25908L12.75 0.75M6.783 4.32198C7.1316 4.667 7.6608 5.18722 8.1756 5.71645C8.592 6.13287 8.9424 6.49229 9.1884 6.7293M6.783 4.32198L5.8572 5.25323M9.1884 6.7293L8.2512 7.64374" stroke="white" stroke-width="1.5" stroke-linecap="round"/>
</svg>
