<svg width="48" height="58" viewBox="0 0 48 58" fill="none" xmlns="http://www.w3.org/2000/svg">
<path d="M21.2 38.2L35.3 24.1L32.5 21.3L21.2 32.6L15.5 26.9L12.7 29.7L21.2 38.2ZM24 49C21.2333 49 18.6333 48.475 16.2 47.425C13.7667 46.375 11.65 44.95 9.85 43.15C8.05 41.35 6.625 39.2333 5.575 36.8C4.525 34.3667 4 31.7667 4 29C4 26.2333 4.525 23.6333 5.575 21.2C6.625 18.7667 8.05 16.65 9.85 14.85C11.65 13.05 13.7667 11.625 16.2 10.575C18.6333 9.525 21.2333 9 24 9C26.7667 9 29.3667 9.525 31.8 10.575C34.2333 11.625 36.35 13.05 38.15 14.85C39.95 16.65 41.375 18.7667 42.425 21.2C43.475 23.6333 44 26.2333 44 29C44 31.7667 43.475 34.3667 42.425 36.8C41.375 39.2333 39.95 41.35 38.15 43.15C36.35 44.95 34.2333 46.375 31.8 47.425C29.3667 48.475 26.7667 49 24 49ZM24 45C28.4667 45 32.25 43.45 35.35 40.35C38.45 37.25 40 33.4667 40 29C40 24.5333 38.45 20.75 35.35 17.65C32.25 14.55 28.4667 13 24 13C19.5333 13 15.75 14.55 12.65 17.65C9.55 20.75 8 24.5333 8 29C8 33.4667 9.55 37.25 12.65 40.35C15.75 43.45 19.5333 45 24 45Z" fill="#14B8A6"/>
</svg>
