<svg width="24" height="28" viewBox="0 0 24 28" fill="none" xmlns="http://www.w3.org/2000/svg">
<path d="M11.6989 22.159C9.31567 22.159 7.29941 21.792 5.65011 21.0581C4.0008 20.3242 3.17615 19.4285 3.17615 18.3711V8.90138C3.17615 7.85972 4.00869 6.96799 5.67378 6.22619C7.33887 5.4844 9.34723 5.1135 11.6989 5.1135C14.0505 5.1135 16.0589 5.4844 17.724 6.22619C19.3891 6.96799 20.2216 7.85972 20.2216 8.90138V18.3711C20.2216 19.4285 19.3969 20.3242 17.7476 21.0581C16.0983 21.792 14.0821 22.159 11.6989 22.159ZM11.6989 10.819C13.1035 10.819 14.5161 10.6178 15.9366 10.2153C17.357 9.81284 18.1541 9.38276 18.3277 8.92506C18.1541 8.46735 17.361 8.03333 15.9484 7.62297C14.5358 7.21262 13.1193 7.00744 11.6989 7.00744C10.2626 7.00744 8.85402 7.20867 7.47302 7.61114C6.09203 8.0136 5.29105 8.45157 5.07009 8.92506C5.29105 9.39854 6.09203 9.83257 7.47302 10.2271C8.85402 10.6217 10.2626 10.819 11.6989 10.819ZM11.6989 15.5302C12.3618 15.5302 13.001 15.4986 13.6165 15.4355C14.232 15.3723 14.8199 15.2816 15.3802 15.1632C15.9405 15.0448 16.4692 14.8989 16.9664 14.7252C17.4636 14.5516 17.9173 14.3544 18.3277 14.1334V11.2925C17.9173 11.5134 17.4636 11.7107 16.9664 11.8843C16.4692 12.0579 15.9405 12.2039 15.3802 12.3223C14.8199 12.4407 14.232 12.5314 13.6165 12.5946C13.001 12.6577 12.3618 12.6893 11.6989 12.6893C11.036 12.6893 10.3889 12.6577 9.75759 12.5946C9.12627 12.5314 8.53047 12.4407 7.97018 12.3223C7.40989 12.2039 6.88511 12.0579 6.39584 11.8843C5.90658 11.7107 5.46466 11.5134 5.07009 11.2925V14.1334C5.46466 14.3544 5.90658 14.5516 6.39584 14.7252C6.88511 14.8989 7.40989 15.0448 7.97018 15.1632C8.53047 15.2816 9.12627 15.3723 9.75759 15.4355C10.3889 15.4986 11.036 15.5302 11.6989 15.5302ZM11.6989 20.265C12.4249 20.265 13.1627 20.2098 13.9124 20.0993C14.6621 19.9888 15.3526 19.8428 15.9839 19.6613C16.6152 19.4798 17.144 19.2746 17.5701 19.0458C17.9962 18.8169 18.2487 18.5841 18.3277 18.3474V16.0273C17.9173 16.2483 17.4636 16.4456 16.9664 16.6192C16.4692 16.7928 15.9405 16.9388 15.3802 17.0572C14.8199 17.1755 14.232 17.2663 13.6165 17.3294C13.001 17.3925 12.3618 17.4241 11.6989 17.4241C11.036 17.4241 10.3889 17.3925 9.75759 17.3294C9.12627 17.2663 8.53047 17.1755 7.97018 17.0572C7.40989 16.9388 6.88511 16.7928 6.39584 16.6192C5.90658 16.4456 5.46466 16.2483 5.07009 16.0273V18.3711C5.149 18.6078 5.39758 18.8367 5.81583 19.0576C6.23407 19.2786 6.75885 19.4798 7.39016 19.6613C8.02148 19.8428 8.71592 19.9888 9.4735 20.0993C10.2311 20.2098 10.9729 20.265 11.6989 20.265Z" fill="#00A991"/>
</svg>
