<svg width="20" height="20" viewBox="0 0 20 20" fill="none" xmlns="http://www.w3.org/2000/svg">
<path d="M16.2428 4.51923C16.8161 5.27571 17.0962 6.2142 17.0312 7.16119C16.9662 8.10817 16.5605 8.99959 15.8892 9.67065L14.4999 11.0592C14.3995 11.1595 14.2633 11.2159 14.1213 11.2159C13.9794 11.2159 13.8432 11.1595 13.7428 11.0592L8.94419 6.26137C8.84387 6.16092 8.78752 6.02476 8.78752 5.8828C8.78752 5.74083 8.84387 5.60467 8.94419 5.50423L10.3335 4.11494C11.0045 3.44361 11.896 3.03795 12.8429 2.97295C13.7899 2.90796 14.7284 3.18802 15.4849 3.76137L17.6592 1.58708C17.7602 1.48945 17.8955 1.43539 18.0359 1.43654C18.1764 1.4377 18.3108 1.49397 18.4102 1.59325C18.5095 1.69253 18.5659 1.82687 18.5672 1.96733C18.5685 2.10779 18.5146 2.24314 18.417 2.34423L16.2428 4.51923ZM9.12633 8.76851C9.22397 8.66752 9.27803 8.53222 9.27687 8.39176C9.27572 8.2513 9.21944 8.1169 9.12016 8.01753C9.02088 7.91816 8.88655 7.86175 8.74608 7.86047C8.60562 7.85918 8.47027 7.91312 8.36919 8.01065L6.8499 9.52922L6.26276 8.94208C6.16231 8.84176 6.02615 8.78541 5.88419 8.78541C5.74222 8.78541 5.60606 8.84176 5.50562 8.94208L4.11633 10.3307C3.445 11.0017 3.03934 11.8931 2.97435 12.8401C2.90935 13.7871 3.18941 14.7256 3.76276 15.4821L1.58847 17.6571C1.53584 17.7061 1.49363 17.7653 1.46435 17.831C1.43507 17.8967 1.41932 17.9676 1.41805 18.0396C1.41678 18.1115 1.43001 18.1829 1.45696 18.2497C1.4839 18.3164 1.52401 18.377 1.57488 18.4278C1.62575 18.4787 1.68634 18.5188 1.75305 18.5457C1.81975 18.5727 1.8912 18.5859 1.96313 18.5846C2.03506 18.5834 2.106 18.5676 2.17172 18.5384C2.23743 18.5091 2.29657 18.4669 2.34562 18.4142L4.52062 16.2399C5.27702 16.8134 6.21546 17.0936 7.16244 17.0287C8.10942 16.9638 9.0009 16.5583 9.67205 15.8871L11.0606 14.4978C11.1609 14.3974 11.2173 14.2612 11.2173 14.1192C11.2173 13.9773 11.1609 13.8411 11.0606 13.7407L10.4699 13.1492L11.9885 11.6314C12.0396 11.5819 12.0804 11.5228 12.1084 11.4574C12.1365 11.392 12.1512 11.3217 12.1518 11.2506C12.1524 11.1795 12.1388 11.1089 12.1118 11.0431C12.0849 10.9773 12.0451 10.9175 11.9948 10.8672C11.9444 10.817 11.8846 10.7772 11.8187 10.7503C11.7529 10.7234 11.6823 10.7099 11.6112 10.7105C11.5401 10.7112 11.4698 10.726 11.4045 10.7541C11.3391 10.7822 11.28 10.823 11.2306 10.8742L9.71276 12.3921L7.60776 10.2871L9.12633 8.76851Z" fill="#FB2C36"/>
</svg>
