<svg width="18" height="21" viewBox="0 0 18 21" fill="none" xmlns="http://www.w3.org/2000/svg">
<path d="M6.08586 6.1281H11.9143V7.58522H6.08586V6.1281ZM6.08586 9.04234H11.9143V10.4995H6.08586V9.04234ZM4.62875 3.21387C4.22804 3.21387 3.88501 3.35654 3.59965 3.64189C3.3143 3.92724 3.17163 4.27028 3.17163 4.67098V16.3279C3.17163 16.7287 3.3143 17.0717 3.59965 17.3571C3.88501 17.6423 4.22804 17.785 4.62875 17.785H10.4572L14.8286 13.4137V4.67098C14.8286 4.27028 14.6859 3.92724 14.4006 3.64189C14.1152 3.35654 13.7722 3.21387 13.3714 3.21387H4.62875ZM9.72867 12.6852V16.3279H4.62875V4.67098H13.3714V12.6852H9.72867ZM4.62875 16.3279V12.6852V4.67098V16.3279Z" fill="#B0E4DD"/>
</svg>
