<svg width="19" height="18" viewBox="0 0 19 18" fill="none" xmlns="http://www.w3.org/2000/svg">
<g clip-path="url(#clip0_1051_1231)">
<path d="M1.94408 15.5556V1.9444C1.94408 1.9444 1.94408 2.305 1.94408 3.026C1.94408 3.7471 1.94408 4.6829 1.94408 5.8333V11.6667C1.94408 12.8171 1.94408 13.7529 1.94408 14.474C1.94408 15.195 1.94408 15.5556 1.94408 15.5556ZM1.94408 17.5C1.40946 17.5 0.95179 17.3096 0.571074 16.9288C0.190358 16.548 0 16.0903 0 15.5556V1.9444C0 1.4097 0.190358 0.952 0.571074 0.571199C0.95179 0.190399 1.40946 0 1.94408 0H15.5527C16.0873 0 16.5449 0.190399 16.9256 0.571199C17.3064 0.952 17.4967 1.4097 17.4967 1.9444V4.375H15.5527V1.9444H1.94408V15.5556H15.5527V13.125H17.4967V15.5556C17.4967 16.0903 17.3064 16.548 16.9256 16.9288C16.5449 17.3096 16.0873 17.5 15.5527 17.5H1.94408ZM9.7204 13.6111C9.18578 13.6111 8.72812 13.4207 8.3474 13.0399C7.96668 12.6591 7.77633 12.2014 7.77633 11.6667V5.8333C7.77633 5.2986 7.96668 4.8409 8.3474 4.4601C8.72812 4.0793 9.18578 3.8889 9.7204 3.8889H16.5247C17.0593 3.8889 17.517 4.0793 17.8977 4.4601C18.2784 4.8409 18.4688 5.2986 18.4688 5.8333V11.6667C18.4688 12.2014 18.2784 12.6591 17.8977 13.0399C17.517 13.4207 17.0593 13.6111 16.5247 13.6111H9.7204ZM16.5247 11.6667V5.8333H9.7204V11.6667H16.5247ZM12.6365 10.2083C12.6365 10.2083 12.7378 10.2083 12.9403 10.2083C13.1428 10.2083 13.3858 10.0665 13.6693 9.78299C13.9528 9.49942 14.0946 9.15509 14.0946 8.75C14.0946 8.34491 13.9528 8.00058 13.6693 7.71701C13.3858 7.4334 13.0416 7.2917 12.6365 7.2917C12.2315 7.2917 11.8873 7.4334 11.6037 7.71701C11.3202 8.00058 11.1785 8.34491 11.1785 8.75C11.1785 9.15509 11.3202 9.49942 11.6037 9.78299C11.8873 10.0665 12.2315 10.2083 12.6365 10.2083Z" fill="#009883"/>
</g>
<defs>
<clipPath id="clip0_1051_1231">
<rect width="18.4688" height="17.5" fill="white" transform="matrix(1 0 0 -1 0 17.5)"/>
</clipPath>
</defs>
</svg>
