<svg width="29" height="34" viewBox="0 0 29 34" fill="none" xmlns="http://www.w3.org/2000/svg">
<path d="M5.85938 25.0781V8.67188C5.85938 8.67188 5.85938 9.10645 5.85938 9.97559C5.85938 10.8447 5.85938 11.9727 5.85938 13.3594V20.3906C5.85938 21.7773 5.85938 22.9053 5.85938 23.7744C5.85938 24.6436 5.85938 25.0781 5.85938 25.0781ZM5.85938 27.4219C5.21484 27.4219 4.66309 27.1924 4.2041 26.7334C3.74512 26.2744 3.51562 25.7227 3.51562 25.0781V8.67188C3.51562 8.02734 3.74512 7.47559 4.2041 7.0166C4.66309 6.55762 5.21484 6.32812 5.85938 6.32812H22.2656C22.9102 6.32812 23.4619 6.55762 23.9209 7.0166C24.3799 7.47559 24.6094 8.02734 24.6094 8.67188V11.6016H22.2656V8.67188H5.85938V25.0781H22.2656V22.1484H24.6094V25.0781C24.6094 25.7227 24.3799 26.2744 23.9209 26.7334C23.4619 27.1924 22.9102 27.4219 22.2656 27.4219H5.85938ZM15.2344 22.7344C14.5898 22.7344 14.0381 22.5049 13.5791 22.0459C13.1201 21.5869 12.8906 21.0352 12.8906 20.3906V13.3594C12.8906 12.7148 13.1201 12.1631 13.5791 11.7041C14.0381 11.2451 14.5898 11.0156 15.2344 11.0156H23.4375C24.082 11.0156 24.6338 11.2451 25.0928 11.7041C25.5518 12.1631 25.7812 12.7148 25.7812 13.3594V20.3906C25.7812 21.0352 25.5518 21.5869 25.0928 22.0459C24.6338 22.5049 24.082 22.7344 23.4375 22.7344H15.2344ZM23.4375 20.3906V13.3594H15.2344V20.3906H23.4375ZM18.75 18.6328C19.2383 18.6328 19.6533 18.4619 19.9951 18.1201C20.3369 17.7783 20.5078 17.3633 20.5078 16.875C20.5078 16.3867 20.3369 15.9717 19.9951 15.6299C19.6533 15.2881 19.2383 15.1172 18.75 15.1172C18.2617 15.1172 17.8467 15.2881 17.5049 15.6299C17.1631 15.9717 16.9922 16.3867 16.9922 16.875C16.9922 17.3633 17.1631 17.7783 17.5049 18.1201C17.8467 18.4619 18.2617 18.6328 18.75 18.6328Z" fill="#00A991"/>
</svg>
