<svg width="24" height="28" viewBox="0 0 24 28" fill="none" xmlns="http://www.w3.org/2000/svg">
<path d="M6.96447 19.3174C5.38619 19.3174 4.04465 18.765 2.93985 17.6602C1.83505 16.5554 1.28265 15.2139 1.28265 13.6356C1.28265 12.0573 1.83505 10.7158 2.93985 9.61097C4.04465 8.50617 5.38619 7.95377 6.96447 7.95377C8.00614 7.95377 8.961 8.21419 9.82906 8.73502C10.6971 9.25585 11.3837 9.94241 11.8887 10.7947H22.116V16.4765H20.222V19.3174H14.5402V16.4765H11.8887C11.3837 17.3288 10.6971 18.0153 9.82906 18.5362C8.961 19.057 8.00614 19.3174 6.96447 19.3174ZM6.96447 17.4235C8.00614 17.4235 8.84263 17.1039 9.47394 16.4647C10.1053 15.8255 10.484 15.1981 10.6103 14.5826H16.4342V17.4235H18.3281V14.5826H20.222V12.6886H10.6103C10.484 12.0731 10.1053 11.4457 9.47394 10.8065C8.84263 10.1673 8.00614 9.84771 6.96447 9.84771C5.92281 9.84771 5.03108 10.2186 4.28928 10.9604C3.54749 11.7022 3.17659 12.5939 3.17659 13.6356C3.17659 14.6773 3.54749 15.569 4.28928 16.3108C5.03108 17.0526 5.92281 17.4235 6.96447 17.4235ZM6.96447 15.5295C7.48531 15.5295 7.93117 15.3441 8.30207 14.9732C8.67296 14.6023 8.85841 14.1564 8.85841 13.6356C8.85841 13.1148 8.67296 12.6689 8.30207 12.298C7.93117 11.9271 7.48531 11.7416 6.96447 11.7416C6.44364 11.7416 5.99777 11.9271 5.62688 12.298C5.25598 12.6689 5.07053 13.1148 5.07053 13.6356C5.07053 14.1564 5.25598 14.6023 5.62688 14.9732C5.99777 15.3441 6.44364 15.5295 6.96447 15.5295Z" fill="#00A991"/>
</svg>
