<svg width="12" height="15" viewBox="0 0 12 15" fill="none" xmlns="http://www.w3.org/2000/svg">
<path d="M5.99976 12L5.27476 11.35C4.43309 10.5917 3.73726 9.9375 3.18726 9.3875C2.63726 8.8375 2.19976 8.34375 1.87476 7.90625C1.54976 7.46875 1.32267 7.06667 1.19351 6.7C1.06434 6.33333 0.999756 5.95833 0.999756 5.575C0.999756 4.79167 1.26226 4.1375 1.78726 3.6125C2.31226 3.0875 2.96642 2.825 3.74976 2.825C4.18309 2.825 4.59559 2.91667 4.98726 3.1C5.37892 3.28333 5.71642 3.54167 5.99976 3.875C6.28309 3.54167 6.62059 3.28333 7.01226 3.1C7.40392 2.91667 7.81642 2.825 8.24976 2.825C9.03309 2.825 9.68726 3.0875 10.2123 3.6125C10.7373 4.1375 10.9998 4.79167 10.9998 5.575C10.9998 5.95833 10.9352 6.33333 10.806 6.7C10.6768 7.06667 10.4498 7.46875 10.1248 7.90625C9.79976 8.34375 9.36226 8.8375 8.81226 9.3875C8.26226 9.9375 7.56642 10.5917 6.72476 11.35L5.99976 12ZM5.99976 10.65C6.79976 9.93333 7.45809 9.31875 7.97476 8.80625C8.49142 8.29375 8.89976 7.84792 9.19976 7.46875C9.49976 7.08958 9.70809 6.75208 9.82476 6.45625C9.94142 6.16042 9.99976 5.86667 9.99976 5.575C9.99976 5.075 9.83309 4.65833 9.49976 4.325C9.16642 3.99167 8.74976 3.825 8.24976 3.825C7.85809 3.825 7.49559 3.93542 7.16226 4.15625C6.82892 4.37708 6.59976 4.65833 6.47476 5H5.52476C5.39976 4.65833 5.17059 4.37708 4.83726 4.15625C4.50392 3.93542 4.14142 3.825 3.74976 3.825C3.24976 3.825 2.83309 3.99167 2.49976 4.325C2.16642 4.65833 1.99976 5.075 1.99976 5.575C1.99976 5.86667 2.05809 6.16042 2.17476 6.45625C2.29142 6.75208 2.49976 7.08958 2.79976 7.46875C3.09976 7.84792 3.50809 8.29375 4.02476 8.80625C4.54142 9.31875 5.19976 9.93333 5.99976 10.65Z" fill="#B0E4DD"/>
</svg>
