<svg width="18" height="21" viewBox="0 0 18 21" fill="none" xmlns="http://www.w3.org/2000/svg">
<path d="M5.72168 7.22094L10.8216 8.67806L12.2787 13.778L7.1788 12.3209L5.72168 7.22094ZM9.0002 9.40662C8.69663 9.40662 8.43861 9.51287 8.2261 9.72537C8.01361 9.93786 7.90736 10.1959 7.90736 10.4995C7.90736 10.803 8.01361 11.061 8.2261 11.2735C8.43861 11.4861 8.69663 11.5923 9.0002 11.5923C9.30376 11.5923 9.5618 11.4861 9.77429 11.2735C9.98679 11.061 10.0931 10.803 10.0931 10.4995C10.0931 10.1959 9.98679 9.93786 9.77429 9.72537C9.5618 9.51287 9.30376 9.40662 9.0002 9.40662ZM9.0002 3.21387C7.99236 3.21387 7.04523 3.40511 6.15882 3.78761C5.2724 4.1701 4.50135 4.6892 3.84564 5.3449C3.18994 6.0006 2.67084 6.77166 2.28834 7.65807C1.90585 8.5445 1.7146 9.49162 1.7146 10.4995C1.7146 11.5073 1.90585 12.4545 2.28834 13.3408C2.67084 14.2273 3.18994 14.9983 3.84564 15.654C4.50135 16.3097 5.2724 16.8288 6.15882 17.2113C7.04523 17.5938 7.99236 17.785 9.0002 17.785C10.008 17.785 10.9551 17.5938 11.8416 17.2113C12.728 16.8288 13.499 16.3097 14.1548 15.654C14.8104 14.9983 15.3296 14.2273 15.7121 13.3408C16.0946 12.4545 16.2858 11.5073 16.2858 10.4995C16.2858 9.49162 16.0946 8.5445 15.7121 7.65807C15.3296 6.77166 14.8104 6.0006 14.1548 5.3449C13.499 4.6892 12.728 4.1701 11.8416 3.78761C10.9551 3.40511 10.008 3.21387 9.0002 3.21387ZM9.0002 4.67098C10.6152 4.67098 11.9904 5.23865 13.1256 6.37399C14.261 7.50933 14.8287 8.88449 14.8287 10.4995C14.8287 12.1144 14.261 13.4896 13.1256 14.6249C11.9904 15.7603 10.6152 16.3279 9.0002 16.3279C7.38522 16.3279 6.01007 15.7603 4.87474 14.6249C3.73939 13.4896 3.17173 12.1144 3.17173 10.4995C3.17173 8.88449 3.73939 7.50933 4.87474 6.37399C6.01007 5.23865 7.38522 4.67098 9.0002 4.67098Z" fill="#B0E4DD"/>
</svg>
