<svg width="28" height="28" viewBox="0 0 28 28" fill="none" xmlns="http://www.w3.org/2000/svg">
<path d="M11.593 18.0843C11.4889 17.6805 11.2784 17.3121 10.9836 17.0172C10.6887 16.7224 10.3203 16.5119 9.91651 16.4078L2.75902 14.5621C2.6369 14.5274 2.52943 14.4539 2.4529 14.3526C2.37637 14.2514 2.33496 14.1279 2.33496 14.0009C2.33496 13.874 2.37637 13.7505 2.4529 13.6493C2.52943 13.548 2.6369 13.4744 2.75902 13.4398L9.91651 11.5929C10.3201 11.4889 10.6885 11.2786 10.9833 10.984C11.2781 10.6894 11.4887 10.3211 11.593 9.91761L13.4387 2.76011C13.473 2.63751 13.5465 2.52951 13.6479 2.45257C13.7493 2.37563 13.8731 2.33398 14.0004 2.33398C14.1277 2.33398 14.2515 2.37563 14.353 2.45257C14.4544 2.52951 14.5279 2.63751 14.5622 2.76011L16.4067 9.91761C16.5108 10.3214 16.7213 10.6898 17.0161 10.9847C17.311 11.2795 17.6794 11.49 18.0832 11.5941L25.2407 13.4386C25.3638 13.4726 25.4723 13.546 25.5497 13.6475C25.627 13.7491 25.6689 13.8733 25.6689 14.0009C25.6689 14.1286 25.627 14.2528 25.5497 14.3544C25.4723 14.4559 25.3638 14.5293 25.2407 14.5633L18.0832 16.4078C17.6794 16.5119 17.311 16.7224 17.0161 17.0172C16.7213 17.3121 16.5108 17.6805 16.4067 18.0843L14.561 25.2418C14.5267 25.3644 14.4532 25.4724 14.3518 25.5493C14.2504 25.6263 14.1266 25.6679 13.9993 25.6679C13.872 25.6679 13.7481 25.6263 13.6467 25.5493C13.5453 25.4724 13.4718 25.3644 13.4375 25.2418L11.593 18.0843Z" stroke="white" stroke-width="2.33333" stroke-linecap="round" stroke-linejoin="round"/>
<path d="M23.333 3.5V8.16667" stroke="white" stroke-width="2.33333" stroke-linecap="round" stroke-linejoin="round"/>
<path d="M25.6667 5.83398H21" stroke="white" stroke-width="2.33333" stroke-linecap="round" stroke-linejoin="round"/>
<path d="M4.66699 19.834V22.1673" stroke="white" stroke-width="2.33333" stroke-linecap="round" stroke-linejoin="round"/>
<path d="M5.83333 21H3.5" stroke="white" stroke-width="2.33333" stroke-linecap="round" stroke-linejoin="round"/>
</svg>
