<svg width="12" height="12" viewBox="0 0 12 12" fill="none" xmlns="http://www.w3.org/2000/svg">
<path d="M7.73838 6.44482L8.49588 10.7078C8.50436 10.758 8.49732 10.8096 8.47569 10.8557C8.45406 10.9018 8.41887 10.9402 8.37484 10.9657C8.33081 10.9913 8.28002 11.0028 8.22928 10.9987C8.17853 10.9946 8.13025 10.9751 8.09088 10.9428L6.30088 9.59932C6.21446 9.53477 6.10949 9.49989 6.00163 9.49989C5.89376 9.49989 5.78879 9.53477 5.70238 9.59932L3.90938 10.9423C3.87004 10.9745 3.82181 10.994 3.77112 10.9981C3.72044 11.0022 3.66971 10.9907 3.62571 10.9653C3.5817 10.9398 3.54651 10.9015 3.52484 10.8555C3.50316 10.8095 3.49602 10.758 3.50438 10.7078L4.26138 6.44482" stroke="#FFB900" stroke-linecap="round" stroke-linejoin="round"/>
<path d="M6 7C7.65685 7 9 5.65685 9 4C9 2.34315 7.65685 1 6 1C4.34315 1 3 2.34315 3 4C3 5.65685 4.34315 7 6 7Z" stroke="#FFB900" stroke-linecap="round" stroke-linejoin="round"/>
</svg>
