<svg width="20" height="18" viewBox="0 0 20 18" fill="none" xmlns="http://www.w3.org/2000/svg">
<g clip-path="url(#clip0_1051_1501)">
<path d="M1.94375 17.5C1.40922 17.5 0.95163 17.2858 0.570978 16.8574C0.190326 16.429 0 15.9141 0 15.3125V2.18756C0 1.58602 0.190326 1.071 0.570978 0.642599C0.95163 0.214199 1.40922 0 1.94375 0H17.4938C18.0283 0 18.4859 0.214199 18.8666 0.642599C19.2473 1.071 19.4375 1.58602 19.4375 2.18756V15.3125C19.4375 15.9141 19.2473 16.429 18.8666 16.8574C18.4859 17.2858 18.0283 17.5 17.4938 17.5H1.94375ZM9.71877 9.84377L1.94375 4.375V15.3125H17.4938V4.375L9.71877 9.84377ZM9.71877 7.65628L17.4938 2.18756H1.94375L9.71877 7.65628Z" fill="#009883"/>
</g>
<defs>
<clipPath id="clip0_1051_1501">
<rect width="19.4375" height="17.5" fill="white" transform="matrix(1 0 0 -1 0 17.5)"/>
</clipPath>
</defs>
</svg>
