<svg width="15" height="15" viewBox="0 0 15 15" fill="none" xmlns="http://www.w3.org/2000/svg">
<path d="M2.42405 8.48524C2.30936 8.48563 2.19691 8.45347 2.09977 8.3925C2.00264 8.33153 1.92479 8.24425 1.87529 8.14079C1.82578 8.03734 1.80665 7.92196 1.82011 7.80807C1.83356 7.69417 1.87906 7.58643 1.95132 7.49736L7.95132 1.31555C7.99633 1.2636 8.05766 1.22849 8.12525 1.21599C8.19284 1.20349 8.26267 1.21434 8.32328 1.24676C8.38389 1.27918 8.43167 1.33124 8.45879 1.3944C8.48592 1.45756 8.49076 1.52806 8.47253 1.59433L7.30889 5.24282C7.27458 5.33465 7.26306 5.43344 7.27531 5.5307C7.28757 5.62797 7.32323 5.72081 7.37925 5.80126C7.43527 5.88171 7.50997 5.94737 7.59694 5.99261C7.68391 6.03785 7.78056 6.06132 7.87859 6.061H12.121C12.2357 6.06061 12.3481 6.09277 12.4453 6.15374C12.5424 6.21471 12.6203 6.302 12.6698 6.40545C12.7193 6.5089 12.7384 6.62428 12.725 6.73818C12.7115 6.85207 12.666 6.95981 12.5937 7.04888L6.59374 13.2307C6.54873 13.2826 6.4874 13.3178 6.41981 13.3303C6.35222 13.3428 6.28239 13.3319 6.22178 13.2995C6.16117 13.2671 6.11339 13.215 6.08627 13.1518C6.05914 13.0887 6.0543 13.0182 6.07253 12.9519L7.23617 9.30342C7.27048 9.21159 7.282 9.11281 7.26975 9.01554C7.25749 8.91828 7.22183 8.82544 7.16581 8.74498C7.10979 8.66453 7.03509 8.59887 6.94812 8.55363C6.86115 8.50839 6.7645 8.48492 6.66647 8.48524H2.42405Z" fill="#102221" stroke="#102221" stroke-width="1.21212" stroke-linecap="round" stroke-linejoin="round"/>
</svg>
