<svg width="11" height="11" viewBox="0 0 11 11" fill="none" xmlns="http://www.w3.org/2000/svg">
<g clip-path="url(#clip0_740_29862)">
<path d="M8.15433 4.72119H2.14551C1.67143 4.72119 1.28711 5.10551 1.28711 5.57959V8.58401C1.28711 9.05809 1.67143 9.44241 2.14551 9.44241H8.15433C8.62842 9.44241 9.01274 9.05809 9.01274 8.58401V5.57959C9.01274 5.10551 8.62842 4.72119 8.15433 4.72119Z" stroke="#FA6938" stroke-width="0.858403" stroke-linecap="round" stroke-linejoin="round"/>
<path d="M3.00488 4.72109V3.00428C3.00488 2.43513 3.23098 1.88928 3.63343 1.48683C4.03589 1.08437 4.58173 0.858276 5.15089 0.858276C5.72005 0.858276 6.26589 1.08437 6.66835 1.48683C7.0708 1.88928 7.2969 2.43513 7.2969 3.00428V4.72109" stroke="#FA6938" stroke-width="0.858403" stroke-linecap="round" stroke-linejoin="round"/>
</g>
<defs>
<clipPath id="clip0_740_29862">
<rect width="10.3008" height="10.3008" fill="white"/>
</clipPath>
</defs>
</svg>
