<svg width="48" height="63" viewBox="0 0 48 63" fill="none" xmlns="http://www.w3.org/2000/svg">
<path d="M6 63C4.35 63 2.9375 62.4125 1.7625 61.2375C0.5875 60.0625 0 58.65 0 57V27C0 25.35 0.5875 23.9375 1.7625 22.7625C2.9375 21.5875 4.35 21 6 21H9V15C9 10.85 10.4625 7.3125 13.3875 4.3875C16.3125 1.4625 19.85 0 24 0C28.15 0 31.6875 1.4625 34.6125 4.3875C37.5375 7.3125 39 10.85 39 15V21H42C43.65 21 45.0625 21.5875 46.2375 22.7625C47.4125 23.9375 48 25.35 48 27V57C48 58.65 47.4125 60.0625 46.2375 61.2375C45.0625 62.4125 43.65 63 42 63H6ZM24 48C25.65 48 27.0625 47.4125 28.2375 46.2375C29.4125 45.0625 30 43.65 30 42C30 40.35 29.4125 38.9375 28.2375 37.7625C27.0625 36.5875 25.65 36 24 36C22.35 36 20.9375 36.5875 19.7625 37.7625C18.5875 38.9375 18 40.35 18 42C18 43.65 18.5875 45.0625 19.7625 46.2375C20.9375 47.4125 22.35 48 24 48ZM15 21H33V15C33 12.5 32.125 10.375 30.375 8.625C28.625 6.875 26.5 6 24 6C21.5 6 19.375 6.875 17.625 8.625C15.875 10.375 15 12.5 15 15V21Z" fill="#66DAC2"/>
</svg>
