<svg width="24" height="28" viewBox="0 0 24 28" fill="none" xmlns="http://www.w3.org/2000/svg">
<path d="M6.01747 23.1062C5.49664 23.1062 5.05078 22.9208 4.67988 22.5499C4.30898 22.179 4.12354 21.7331 4.12354 21.2123V11.7426C4.12354 11.2218 4.30898 10.7759 4.67988 10.405C5.05078 10.0341 5.49664 9.84865 6.01747 9.84865H6.96444V7.95471C6.96444 6.64473 7.42609 5.5281 8.34939 4.6048C9.27268 3.68151 10.3893 3.21986 11.6993 3.21986C13.0093 3.21986 14.1259 3.68151 15.0492 4.6048C15.9725 5.5281 16.4341 6.64473 16.4341 7.95471V9.84865H17.3811C17.9019 9.84865 18.3478 10.0341 18.7187 10.405C19.0896 10.7759 19.275 11.2218 19.275 11.7426V21.2123C19.275 21.7331 19.0896 22.179 18.7187 22.5499C18.3478 22.9208 17.9019 23.1062 17.3811 23.1062H6.01747ZM6.01747 21.2123H17.3811V11.7426H6.01747V21.2123ZM11.6993 18.3714C12.2201 18.3714 12.666 18.1859 13.0369 17.815C13.4078 17.4441 13.5932 16.9983 13.5932 16.4774C13.5932 15.9566 13.4078 15.5107 13.0369 15.1398C12.666 14.7689 12.2201 14.5835 11.6993 14.5835C11.1785 14.5835 10.7326 14.7689 10.3617 15.1398C9.9908 15.5107 9.80535 15.9566 9.80535 16.4774C9.80535 16.9983 9.9908 17.4441 10.3617 17.815C10.7326 18.1859 11.1785 18.3714 11.6993 18.3714ZM8.85838 9.84865H14.5402V7.95471C14.5402 7.16557 14.264 6.4948 13.7116 5.9424C13.1592 5.39 12.4884 5.1138 11.6993 5.1138C10.9102 5.1138 10.2394 5.39 9.68698 5.9424C9.13458 6.4948 8.85838 7.16557 8.85838 7.95471V9.84865Z" fill="#009883"/>
</svg>
