<svg width="22" height="16" viewBox="0 0 22 16" fill="none" xmlns="http://www.w3.org/2000/svg">
<g clip-path="url(#clip0_1051_1081)">
<path d="M0 15.5781V12.852C0 12.3002 0.14169 11.7931 0.425071 11.3307C0.708451 10.8682 1.08495 10.5152 1.55455 10.2718C2.55852 9.76879 3.57869 9.39151 4.61505 9.13999C5.65142 8.88846 6.70397 8.76271 7.77272 8.76271C8.84147 8.76271 9.89403 8.88846 10.9303 9.13999C11.9668 9.39151 12.987 9.76879 13.9909 10.2718C14.4605 10.5152 14.837 10.8682 15.1204 11.3307C15.4038 11.7931 15.5455 12.3002 15.5455 12.852V15.5781H0ZM17.4886 15.5781V12.6572C17.4886 11.9432 17.2903 11.2576 16.8935 10.6004C16.4968 9.94324 15.9341 9.37934 15.2053 8.90875C16.0313 9.00611 16.8085 9.17244 17.5372 9.40774C18.2659 9.64303 18.946 9.93106 19.5775 10.2718C20.1605 10.5964 20.6058 10.9574 20.9135 11.355C21.2211 11.7526 21.375 12.1866 21.375 12.6572V15.5781H17.4886ZM7.77272 7.78907C7.77272 7.78907 7.50553 7.78907 6.97116 7.78907C6.43678 7.78907 5.78906 7.40773 5.02798 6.64505C4.2669 5.88238 3.88636 4.96555 3.88636 3.89456C3.88636 2.82356 4.2669 1.90675 5.02798 1.14403C5.78906 0.38131 6.70397 0 7.77272 0C8.84147 0 9.75639 0.38131 10.5174 1.14403C11.2786 1.90675 11.6591 2.82356 11.6591 3.89456C11.6591 4.96555 11.2786 5.88238 10.5174 6.64505C9.75639 7.40773 8.84147 7.78907 7.77272 7.78907ZM17.4886 3.89456C17.4886 3.89456 17.4886 4.16226 17.4886 4.69775C17.4886 5.23325 17.1081 5.88238 16.347 6.64505C15.586 7.40773 14.671 7.78907 13.6022 7.78907C13.4242 7.78907 13.1974 7.76878 12.9222 7.72822C12.6468 7.68765 12.4202 7.64303 12.242 7.59435C12.6792 7.07507 13.0153 6.49901 13.2501 5.86615C13.4848 5.23325 13.6022 4.57613 13.6022 3.89456C13.6022 3.21299 13.4848 2.55576 13.2501 1.92298C13.0153 1.2901 12.6792 0.71403 12.242 0.194762C12.4688 0.113611 12.6954 0.0609131 12.9222 0.0365677C13.1488 0.0122223 13.3756 0 13.6022 0C14.671 0 15.586 0.38131 16.347 1.14403C17.1081 1.90675 17.4886 2.82356 17.4886 3.89456ZM1.94318 13.6309H13.6022V12.852C13.6022 12.6735 13.5577 12.5112 13.4686 12.3651C13.3796 12.2191 13.2622 12.1055 13.1164 12.0244C12.242 11.5862 11.3595 11.2576 10.4689 11.0386C9.57826 10.8195 8.67954 10.71 7.77272 10.71C6.8659 10.71 5.96718 10.8195 5.07656 11.0386C4.18593 11.2576 3.30341 11.5862 2.42897 12.0244C2.28324 12.1055 2.16583 12.2191 2.07677 12.3651C1.98772 12.5112 1.94318 12.6735 1.94318 12.852V13.6309ZM7.77272 5.84181C7.77272 5.84181 7.90631 5.84181 8.1735 5.84181C8.44069 5.84181 8.76455 5.65114 9.14509 5.26982C9.52563 4.88851 9.7159 4.43005 9.7159 3.89456C9.7159 3.35906 9.52563 2.9006 9.14509 2.51929C8.76455 2.13798 8.3071 1.94733 7.77272 1.94733C7.23835 1.94733 6.78089 2.13798 6.40035 2.51929C6.01981 2.9006 5.82954 3.35906 5.82954 3.89456C5.82954 4.43005 6.01981 4.88851 6.40035 5.26982C6.78089 5.65114 7.23835 5.84181 7.77272 5.84181Z" fill="#009883"/>
</g>
<defs>
<clipPath id="clip0_1051_1081">
<rect width="21.375" height="15.5781" fill="white" transform="matrix(1 0 0 -1 0 15.5781)"/>
</clipPath>
</defs>
</svg>
