<svg width="29" height="34" viewBox="0 0 29 34" fill="none" xmlns="http://www.w3.org/2000/svg">
<path d="M1.17285 26.25V22.9688C1.17285 22.3047 1.34375 21.6943 1.68555 21.1377C2.02734 20.5811 2.48145 20.1562 3.04785 19.8633C4.25879 19.2578 5.48926 18.8037 6.73926 18.501C7.98926 18.1982 9.25879 18.0469 10.5479 18.0469C11.8369 18.0469 13.1064 18.1982 14.3564 18.501C15.6064 18.8037 16.8369 19.2578 18.0479 19.8633C18.6143 20.1562 19.0684 20.5811 19.4102 21.1377C19.752 21.6943 19.9229 22.3047 19.9229 22.9688V26.25H1.17285ZM22.2666 26.25V22.7344C22.2666 21.875 22.0273 21.0498 21.5488 20.2588C21.0703 19.4678 20.3916 18.7891 19.5127 18.2227C20.5088 18.3398 21.4463 18.54 22.3252 18.8232C23.2041 19.1064 24.0244 19.4531 24.7861 19.8633C25.4893 20.2539 26.0264 20.6885 26.3975 21.167C26.7686 21.6455 26.9541 22.168 26.9541 22.7344V26.25H22.2666ZM10.5479 16.875C9.25879 16.875 8.15527 16.416 7.2373 15.498C6.31934 14.5801 5.86035 13.4766 5.86035 12.1875C5.86035 10.8984 6.31934 9.79492 7.2373 8.87695C8.15527 7.95898 9.25879 7.5 10.5479 7.5C11.8369 7.5 12.9404 7.95898 13.8584 8.87695C14.7764 9.79492 15.2354 10.8984 15.2354 12.1875C15.2354 13.4766 14.7764 14.5801 13.8584 15.498C12.9404 16.416 11.8369 16.875 10.5479 16.875ZM22.2666 12.1875C22.2666 13.4766 21.8076 14.5801 20.8896 15.498C19.9717 16.416 18.8682 16.875 17.5791 16.875C17.3643 16.875 17.0908 16.8506 16.7588 16.8018C16.4268 16.7529 16.1533 16.6992 15.9385 16.6406C16.4658 16.0156 16.8711 15.3223 17.1543 14.5605C17.4375 13.7988 17.5791 13.0078 17.5791 12.1875C17.5791 11.3672 17.4375 10.5762 17.1543 9.81445C16.8711 9.05273 16.4658 8.35938 15.9385 7.73438C16.2119 7.63672 16.4854 7.57324 16.7588 7.54395C17.0322 7.51465 17.3057 7.5 17.5791 7.5C18.8682 7.5 19.9717 7.95898 20.8896 8.87695C21.8076 9.79492 22.2666 10.8984 22.2666 12.1875ZM3.5166 23.9062H17.5791V22.9688C17.5791 22.7539 17.5254 22.5586 17.418 22.3828C17.3105 22.207 17.1689 22.0703 16.9932 21.9727C15.9385 21.4453 14.874 21.0498 13.7998 20.7861C12.7256 20.5225 11.6416 20.3906 10.5479 20.3906C9.4541 20.3906 8.37012 20.5225 7.2959 20.7861C6.22168 21.0498 5.15723 21.4453 4.10254 21.9727C3.92676 22.0703 3.78516 22.207 3.67773 22.3828C3.57031 22.5586 3.5166 22.7539 3.5166 22.9688V23.9062ZM10.5479 14.5312C11.1924 14.5312 11.7441 14.3018 12.2031 13.8428C12.6621 13.3838 12.8916 12.832 12.8916 12.1875C12.8916 11.543 12.6621 10.9912 12.2031 10.5322C11.7441 10.0732 11.1924 9.84375 10.5479 9.84375C9.90332 9.84375 9.35156 10.0732 8.89258 10.5322C8.43359 10.9912 8.2041 11.543 8.2041 12.1875C8.2041 12.832 8.43359 13.3838 8.89258 13.8428C9.35156 14.3018 9.90332 14.5312 10.5479 14.5312Z" fill="#00A991"/>
</svg>
