<svg width="18" height="21" viewBox="0 0 18 21" fill="none" xmlns="http://www.w3.org/2000/svg">
<path d="M3.9 5.39999V15.5999C3.9 15.5999 3.9 15.3297 3.9 14.7893C3.9 14.249 3.9 13.5477 3.9 12.6856V8.31423C3.9 7.4521 3.9 6.75086 3.9 6.21051C3.9 5.67016 3.9 5.39999 3.9 5.39999ZM3.9 3.94287C3.49929 3.94287 3.15626 4.08555 2.8709 4.3709C2.58555 4.65626 2.44287 4.99928 2.44287 5.39999V15.5999C2.44287 16.0005 2.58555 16.3435 2.8709 16.6289C3.15626 16.9143 3.49929 17.0569 3.9 17.0569H14.0998C14.5005 17.0569 14.8435 16.9143 15.1289 16.6289C15.4142 16.3435 15.5569 16.0005 15.5569 15.5999V13.7784H14.0998V15.5999H3.9V5.39999H14.0998V7.22139H15.5569V5.39999C15.5569 4.99928 15.4142 4.65626 15.1289 4.3709C14.8435 4.08555 14.5005 3.94287 14.0998 3.94287H3.9ZM9.72847 6.85711C9.32776 6.85711 8.98473 6.99978 8.69938 7.28514C8.41403 7.57049 8.27135 7.91352 8.27135 8.31423V12.6856C8.27135 13.0863 8.41403 13.4294 8.69938 13.7146C8.98473 14 9.32776 14.1427 9.72847 14.1427H14.8284C15.2291 14.1427 15.5721 14 15.8575 13.7146C16.1428 13.4294 16.2855 13.0863 16.2855 12.6856V8.31423C16.2855 7.91352 16.1428 7.57049 15.8575 7.28514C15.5721 6.99978 15.2291 6.85711 14.8284 6.85711H9.72847ZM14.8284 8.31423V12.6856H9.72847V8.31423H14.8284ZM11.9142 9.40707C12.2177 9.40707 12.4758 9.51332 12.6882 9.72581C12.9007 9.9383 13.0069 10.1964 13.0069 10.4999C13.0069 10.8035 12.9007 11.0615 12.6882 11.274C12.4758 11.4865 12.2177 11.5927 11.9142 11.5927C11.6106 11.5927 11.3525 11.4865 11.1401 11.274C10.9276 11.0615 10.8213 10.8035 10.8213 10.4999C10.8213 10.1964 10.9276 9.9383 11.1401 9.72581C11.3525 9.51332 11.6106 9.40707 11.9142 9.40707Z" fill="#B0E4DD"/>
</svg>
