<svg width="10" height="11" viewBox="0 0 10 11" fill="none" xmlns="http://www.w3.org/2000/svg">
<path d="M1.95524 8.53125C1.75472 8.53125 1.58306 8.45985 1.44027 8.31706C1.29747 8.17426 1.22607 8.0026 1.22607 7.80208V2.69792C1.22607 2.4974 1.29747 2.32574 1.44027 2.18294C1.58306 2.04015 1.75472 1.96875 1.95524 1.96875H4.50732V2.69792H1.95524V7.80208H7.05941V5.25H7.78857V7.80208C7.78857 8.0026 7.71718 8.17426 7.57438 8.31706C7.43159 8.45985 7.25993 8.53125 7.05941 8.53125H1.95524ZM3.66878 6.59896L3.15837 6.08854L6.54899 2.69792H5.23649V1.96875H7.78857V4.52083H7.05941V3.20833L3.66878 6.59896Z" fill="#13EC5F"/>
</svg>
