<svg width="24" height="23" viewBox="0 0 24 23" fill="none" xmlns="http://www.w3.org/2000/svg">
<g clip-path="url(#clip0_1051_1321)">
<path d="M5.83595 22.3594C5.83595 22.3594 5.6333 22.3594 5.22803 22.3594C4.82276 22.3594 4.33643 22.0758 3.76904 21.5087C3.20166 20.9417 2.91797 20.2531 2.91797 19.4429C2.91797 18.6328 3.20166 17.9442 3.76904 17.3771C4.33643 16.81 5.0254 16.5265 5.83595 16.5265C6.06289 16.5265 6.27364 16.5508 6.46817 16.5994C6.6627 16.648 6.84913 16.7128 7.02745 16.7938L8.41348 15.0683C7.95958 14.566 7.64347 13.9989 7.46514 13.367C7.28682 12.7351 7.24629 12.1032 7.34356 11.4713L5.37393 10.8152C5.09834 11.2202 4.74981 11.5442 4.32833 11.7873C3.90684 12.0303 3.43673 12.1518 2.91797 12.1518C2.10742 12.1518 1.41845 11.8683 0.851075 11.3012C0.283692 10.7341 0 10.0455 0 9.23543C0 8.42525 0.283692 7.73662 0.851075 7.16963C1.41845 6.60254 2.10742 6.31894 2.91797 6.31894C3.72852 6.31894 4.41748 6.60254 4.98486 7.16963C5.55225 7.73662 5.83595 8.42525 5.83595 9.23543C5.83595 9.26784 5.83595 9.30025 5.83595 9.33256C5.83595 9.36497 5.83595 9.39738 5.83595 9.42979L7.80558 10.1103C8.12979 9.52703 8.56343 9.03286 9.1065 8.62782C9.64957 8.22278 10.2616 7.9635 10.9423 7.85006V5.73564C10.3102 5.55748 9.78736 5.21317 9.37398 4.70279C8.9606 4.19242 8.75392 3.59692 8.75392 2.91649C8.75392 2.10631 9.0376 1.41768 9.60499 0.850588C10.1724 0.283497 10.8614 -1.90735e-06 11.6719 -1.90735e-06C12.4825 -1.90735e-06 13.1714 0.283497 13.7388 0.850588C14.3061 1.41768 14.5899 2.10631 14.5899 2.91649C14.5899 3.59692 14.3791 4.19242 13.9576 4.70279C13.5362 5.21317 13.0174 5.55748 12.4014 5.73564V7.85006C13.0822 7.9635 13.6942 8.22278 14.2373 8.62782C14.7804 9.03286 15.2139 9.52703 15.5382 10.1103L17.5078 9.42979C17.5078 9.39738 17.5078 9.36497 17.5078 9.33256C17.5078 9.30025 17.5078 9.26784 17.5078 9.23543C17.5078 8.42525 17.7916 7.73662 18.3589 7.16963C18.9262 6.60254 19.6152 6.31894 20.4258 6.31894C21.2363 6.31894 21.9253 6.60254 22.4927 7.16963C23.0601 7.73662 23.3438 8.42525 23.3438 9.23543C23.3438 10.0455 23.0601 10.7341 22.4927 11.3012C21.9253 11.8683 21.2363 12.1518 20.4258 12.1518C19.9071 12.1518 19.4329 12.0303 19.0033 11.7873C18.5737 11.5442 18.2292 11.2202 17.9698 10.8152L16.0002 11.4713C16.0975 12.1032 16.057 12.7311 15.8786 13.3549C15.7004 13.9787 15.3842 14.5498 14.9303 15.0683L16.3163 16.7695C16.4946 16.6885 16.6811 16.6278 16.8756 16.5872C17.0701 16.5467 17.2809 16.5265 17.5078 16.5265C18.3184 16.5265 19.0073 16.81 19.5747 17.3771C20.1421 17.9442 20.4258 18.6328 20.4258 19.4429C20.4258 20.2531 20.1421 20.9417 19.5747 21.5087C19.0073 22.0758 18.3184 22.3594 17.5078 22.3594C16.6973 22.3594 16.0083 22.0758 15.4409 21.5087C14.8735 20.9417 14.5899 20.2531 14.5899 19.4429C14.5899 19.1189 14.6425 18.807 14.7479 18.5072C14.8533 18.2075 14.9951 17.9361 15.1735 17.6931L13.7874 15.9675C13.1227 16.3402 12.4135 16.5265 11.6598 16.5265C10.9059 16.5265 10.1967 16.3402 9.53204 15.9675L8.17032 17.6931C8.34864 17.9361 8.49049 18.2075 8.59586 18.5072C8.70123 18.807 8.75392 19.1189 8.75392 19.4429C8.75392 20.2531 8.47022 20.9417 7.90284 21.5087C7.33545 22.0758 6.64649 22.3594 5.83595 22.3594ZM2.91797 10.2076C3.19356 10.2076 3.42457 10.1143 3.61099 9.92806C3.79742 9.7417 3.89063 9.51082 3.89063 9.23543C3.89063 8.95994 3.79742 8.72906 3.61099 8.54269C3.42457 8.35643 3.19356 8.2632 2.91797 8.2632C2.64238 8.2632 2.41138 8.35643 2.22495 8.54269C2.03853 8.72906 1.94532 8.95994 1.94532 9.23543C1.94532 9.51082 2.03853 9.7417 2.22495 9.92806C2.41138 10.1143 2.64238 10.2076 2.91797 10.2076ZM5.83595 20.4151C5.83595 20.4151 5.90484 20.4151 6.04264 20.4151C6.18042 20.4151 6.34254 20.3219 6.52897 20.1356C6.71539 19.9493 6.8086 19.7184 6.8086 19.4429C6.8086 19.1675 6.71539 18.9366 6.52897 18.7503C6.34254 18.5639 6.11153 18.4708 5.83595 18.4708C5.56036 18.4708 5.32935 18.5639 5.14293 18.7503C4.9565 18.9366 4.86329 19.1675 4.86329 19.4429C4.86329 19.7184 4.9565 19.9493 5.14293 20.1356C5.32935 20.3219 5.56036 20.4151 5.83595 20.4151ZM11.6719 3.88862C11.6719 3.88862 11.7407 3.88862 11.8786 3.88862C12.0164 3.88862 12.1785 3.79539 12.3649 3.60912C12.5513 3.42276 12.6445 3.19188 12.6445 2.91649C12.6445 2.641 12.5513 2.41012 12.3649 2.22375C12.1785 2.03749 11.9475 1.94426 11.6719 1.94426C11.3963 1.94426 11.1653 2.03749 10.9789 2.22375C10.7924 2.41012 10.6992 2.641 10.6992 2.91649C10.6992 3.19188 10.7924 3.42276 10.9789 3.60912C11.1653 3.79539 11.3963 3.88862 11.6719 3.88862ZM11.6719 14.5822C12.3528 14.5822 12.9283 14.3473 13.3984 13.8774C13.8685 13.4075 14.1036 12.8323 14.1036 12.1518C14.1036 11.4713 13.8685 10.8962 13.3984 10.4262C12.9283 9.95637 12.3528 9.72149 11.6719 9.72149C10.991 9.72149 10.4155 9.95637 9.94541 10.4262C9.4753 10.8962 9.24025 11.4713 9.24025 12.1518C9.24025 12.8323 9.4753 13.4075 9.94541 13.8774C10.4155 14.3473 10.991 14.5822 11.6719 14.5822ZM17.5078 20.4151C17.5078 20.4151 17.5768 20.4151 17.7145 20.4151C17.8523 20.4151 18.0145 20.3219 18.2008 20.1356C18.3873 19.9493 18.4805 19.7184 18.4805 19.4429C18.4805 19.1675 18.3873 18.9366 18.2008 18.7503C18.0145 18.5639 17.7835 18.4708 17.5078 18.4708C17.2323 18.4708 17.0013 18.5639 16.8148 18.7503C16.6284 18.9366 16.5352 19.1675 16.5352 19.4429C16.5352 19.7184 16.6284 19.9493 16.8148 20.1356C17.0013 20.3219 17.2323 20.4151 17.5078 20.4151ZM20.4258 10.2076C20.4258 10.2076 20.4947 10.2076 20.6325 10.2076C20.7703 10.2076 20.9324 10.1143 21.1188 9.92806C21.3053 9.7417 21.3985 9.51082 21.3985 9.23543C21.3985 8.95994 21.3053 8.72906 21.1188 8.54269C20.9324 8.35643 20.7014 8.2632 20.4258 8.2632C20.1502 8.2632 19.9192 8.35643 19.7327 8.54269C19.5464 8.72906 19.4532 8.95994 19.4532 9.23543C19.4532 9.51082 19.5464 9.7417 19.7327 9.92806C19.9192 10.1143 20.1502 10.2076 20.4258 10.2076Z" fill="#009883"/>
</g>
<defs>
<clipPath id="clip0_1051_1321">
<rect width="23.3438" height="22.3594" fill="white" transform="matrix(1 0 0 -1 0 22.3594)"/>
</clipPath>
</defs>
</svg>
