<svg width="18" height="21" viewBox="0 0 18 21" fill="none" xmlns="http://www.w3.org/2000/svg">
<path d="M6.99647 3.21387L6.70504 5.54525C6.54719 5.60597 6.39845 5.67882 6.2588 5.76382C6.11916 5.84882 5.98255 5.9399 5.84898 6.03703L3.68152 5.12633L1.67798 8.58699L3.55403 10.0077C3.54188 10.0927 3.53581 10.1747 3.53581 10.2536C3.53581 10.3325 3.53581 10.4145 3.53581 10.4995C3.53581 10.5844 3.53581 10.6664 3.53581 10.7454C3.53581 10.8243 3.54188 10.9062 3.55403 10.9913L1.67798 12.4119L3.68152 15.8726L5.84898 14.9619C5.98255 15.059 6.1222 15.1501 6.2679 15.2351C6.41362 15.3201 6.55933 15.3929 6.70504 15.4537L6.99647 17.785H11.0036L11.2949 15.4537C11.4528 15.3929 11.6016 15.3201 11.7413 15.2351C11.8808 15.1501 12.0174 15.059 12.151 14.9619L14.3185 15.8726L16.322 12.4119L14.446 10.9913C14.4581 10.9062 14.4642 10.8243 14.4642 10.7454C14.4642 10.6664 14.4642 10.5844 14.4642 10.4995C14.4642 10.4145 14.4642 10.3325 14.4642 10.2536C14.4642 10.1747 14.4521 10.0927 14.4278 10.0077L16.3039 8.58699L14.3003 5.12633L12.151 6.03703C12.0174 5.9399 11.8778 5.84882 11.7321 5.76382C11.5864 5.67882 11.4407 5.60597 11.2949 5.54525L11.0036 3.21387H6.99647ZM8.27144 4.67098H9.71035L9.96534 6.60166C10.3418 6.69881 10.6908 6.84148 11.0127 7.0297C11.3344 7.21791 11.6288 7.44558 11.896 7.71272L13.6992 6.96595L14.4095 8.2045L12.8431 9.38841C12.9039 9.5584 12.9463 9.73751 12.9706 9.92572C12.9949 10.1139 13.0071 10.3051 13.0071 10.4995C13.0071 10.6937 12.9949 10.885 12.9706 11.0732C12.9463 11.2615 12.9039 11.4405 12.8431 11.6106L14.4095 12.7945L13.6992 14.0329L11.896 13.268C11.6288 13.5472 11.3344 13.7811 11.0127 13.9692C10.6908 14.1574 10.3418 14.3001 9.96534 14.3972L9.72857 16.3279H8.28966L8.03466 14.3972C7.65825 14.3001 7.30914 14.1574 6.98736 13.9692C6.66558 13.7811 6.37112 13.5533 6.10398 13.2862L4.30079 14.0329L3.59045 12.7945L5.15685 11.6287C5.09614 11.4466 5.05365 11.2644 5.02936 11.0823C5.00507 10.9002 4.99293 10.7059 4.99293 10.4995C4.99293 10.3051 5.00507 10.117 5.02936 9.93483C5.05365 9.75269 5.09614 9.57055 5.15685 9.38841L3.59045 8.2045L4.30079 6.96595L6.10398 7.73093C6.37112 7.45166 6.66558 7.21791 6.98736 7.0297C7.30914 6.84148 7.65825 6.69881 8.03466 6.60166L8.27144 4.67098ZM9.03644 7.9495C9.74071 7.9495 10.3418 8.19842 10.8396 8.69628C11.3375 9.19412 11.5864 9.79518 11.5864 10.4995C11.5864 11.2037 11.3375 11.8048 10.8396 12.3027C10.3418 12.8005 9.74071 13.0495 9.03644 13.0495C8.32001 13.0495 7.71592 12.8005 7.22414 12.3027C6.73237 11.8048 6.48647 11.2037 6.48647 10.4995C6.48647 9.79518 6.73237 9.19412 7.22414 8.69628C7.71592 8.19842 8.32001 7.9495 9.03644 7.9495Z" fill="#B0E4DD"/>
</svg>
