<svg width="29" height="34" viewBox="0 0 29 34" fill="none" xmlns="http://www.w3.org/2000/svg">
<path d="M14.063 28.5938C11.3481 27.9102 9.10693 26.3525 7.33936 23.9209C5.57178 21.4893 4.68799 18.7891 4.68799 15.8203V8.67188L14.063 5.15625L23.438 8.67188V15.8203C23.438 18.7891 22.5542 21.4893 20.7866 23.9209C19.019 26.3525 16.7778 27.9102 14.063 28.5938ZM14.063 26.1328C16.0942 25.4883 17.7739 24.1992 19.1021 22.2656C20.4302 20.332 21.0942 18.1836 21.0942 15.8203V10.2832L14.063 7.64648L7.03174 10.2832V15.8203C7.03174 18.1836 7.6958 20.332 9.02393 22.2656C10.3521 24.1992 12.0317 25.4883 14.063 26.1328Z" fill="#00A991"/>
</svg>
