<svg width="24" height="28" viewBox="0 0 24 28" fill="none" xmlns="http://www.w3.org/2000/svg">
<path d="M10.7035 16.9975L16.0539 11.6472L14.7045 10.2977L10.7035 14.2987L8.71489 12.31L7.36546 13.6595L10.7035 16.9975ZM11.6978 23.1055C9.50403 22.5531 7.69295 21.2944 6.2646 19.3294C4.83626 17.3645 4.12209 15.1825 4.12209 12.7835V7.00701L11.6978 4.1661L19.2736 7.00701V12.7835C19.2736 15.1825 18.5594 17.3645 17.1311 19.3294C15.7027 21.2944 13.8917 22.5531 11.6978 23.1055ZM11.6978 21.1169C13.3393 20.596 14.6966 19.5544 15.7698 17.9919C16.843 16.4294 17.3797 14.6932 17.3797 12.7835V8.30909L11.6978 6.17841L6.01602 8.30909V12.7835C6.01602 14.6932 6.55264 16.4294 7.62587 17.9919C8.69911 19.5544 10.0564 20.596 11.6978 21.1169Z" fill="#2DD4BF"/>
</svg>
