<svg width="20" height="20" viewBox="0 0 20 20" fill="none" xmlns="http://www.w3.org/2000/svg">
<g clip-path="url(#clip0_1051_991)">
<path d="M3.49901 7.78067L5.3943 8.58352C5.6211 8.1294 5.85598 7.69149 6.09896 7.26979C6.34195 6.8481 6.60924 6.42641 6.90082 6.00471L5.5401 5.73716L3.49901 7.78067ZM6.94942 9.79994L9.71946 12.549C10.3999 12.2895 11.1287 11.8922 11.9063 11.3569C12.6839 10.8217 13.4129 10.2135 14.0932 9.53233C15.2272 8.39705 16.114 7.13597 16.7539 5.74927C17.3938 4.36258 17.6732 3.08528 17.5922 1.91759C16.4259 1.83652 15.1462 2.11628 13.753 2.75688C12.3599 3.39758 11.0964 4.28551 9.96245 5.42087C9.28209 6.102 8.67462 6.83188 8.14005 7.61041C7.60548 8.38894 7.20861 9.11872 6.94942 9.79994ZM11.2746 8.21858C11.2746 8.21858 11.1814 8.12529 10.9952 7.93882C10.8088 7.75234 10.7158 7.3874 10.7158 6.8441C10.7158 6.30069 10.902 5.84256 11.2746 5.46951C11.6472 5.09646 12.1089 4.90999 12.6596 4.90999C13.2104 4.90999 13.672 5.09646 14.0446 5.46951C14.4172 5.84256 14.6035 6.30069 14.6035 6.8441C14.6035 7.3874 14.4172 7.84553 14.0446 8.21858C13.672 8.59163 13.2104 8.7781 12.6596 8.7781C12.1089 8.7781 11.6472 8.59163 11.2746 8.21858ZM11.7363 16.028L13.7774 13.9844L13.5101 12.622C13.0889 12.914 12.6677 13.1775 12.2465 13.4127C11.8253 13.6479 11.388 13.879 10.9344 14.106L11.7363 16.028ZM19.3417 0.141634C19.6495 2.10407 19.4592 4.01385 18.7707 5.87089C18.0823 7.72802 16.8957 9.49988 15.211 11.1866L15.6969 13.5951C15.7617 13.9195 15.7455 14.2358 15.6484 14.544C15.5512 14.8521 15.3891 15.1197 15.1624 15.3468L11.0802 19.4339L9.03911 14.6413L4.88403 10.4811L0.0971946 8.43758L4.15507 4.35037C4.38186 4.12335 4.65319 3.9611 4.96908 3.86381C5.28496 3.76652 5.60489 3.75031 5.92888 3.81517L8.33445 4.30172C10.0192 2.61494 11.7849 1.42293 13.6315 0.725479C15.4782 0.0280266 17.3817 -0.166553 19.3417 0.141634ZM1.8224 13.5708C2.38937 13.0032 3.08188 12.7153 3.89993 12.7072C4.71799 12.6991 5.41051 12.9788 5.97747 13.5465C6.54444 14.1141 6.82387 14.8075 6.81578 15.6266C6.80768 16.4456 6.52014 17.139 5.95317 17.7066C5.5482 18.1121 4.87188 18.4608 3.92424 18.7527C2.97659 19.0447 1.66851 19.3042 0 19.5312C0.226788 17.8607 0.485973 16.551 0.777557 15.6022C1.06914 14.6534 1.41742 13.9763 1.8224 13.5708ZM3.20742 14.9332C3.04544 15.0954 2.88344 15.3914 2.72145 15.8212C2.55946 16.251 2.44607 16.6848 2.38126 17.1227C2.81864 17.0579 3.25197 16.9484 3.68125 16.7943C4.11052 16.6402 4.40616 16.4821 4.56814 16.3199C4.76254 16.1253 4.86783 15.8901 4.88403 15.6144C4.90023 15.3387 4.81114 15.1035 4.61675 14.9089C4.42236 14.7142 4.18747 14.621 3.91208 14.6291C3.6367 14.6372 3.40182 14.7386 3.20742 14.9332Z" fill="#009883"/>
</g>
<defs>
<clipPath id="clip0_1051_991">
<rect width="19.4844" height="19.5312" fill="white" transform="matrix(1 0 0 -1 0 19.5312)"/>
</clipPath>
</defs>
</svg>
