<svg width="18" height="21" viewBox="0 0 18 21" fill="none" xmlns="http://www.w3.org/2000/svg">
<path d="M9 1.75C4.8645 1.75 1.5 5.67525 1.5 10.5V14.1251C1.5 15.0211 2.17275 15.75 3 15.75H3.75C3.94891 15.75 4.13968 15.6578 4.28033 15.4937C4.42098 15.3296 4.5 15.1071 4.5 14.875V10.3749C4.5 10.1428 4.42098 9.92025 4.28033 9.75616C4.13968 9.59206 3.94891 9.49988 3.75 9.49988H3.069C3.486 6.11363 5.9835 3.5 9 3.5C12.0165 3.5 14.514 6.11363 14.931 9.49988H14.25C14.0511 9.49988 13.8603 9.59206 13.7197 9.75616C13.579 9.92025 13.5 10.1428 13.5 10.3749V15.75C13.5 16.7151 12.8273 17.5 12 17.5H10.5V16.625H7.5V19.25H12C13.6545 19.25 15 17.6803 15 15.75C15.8273 15.75 16.5 15.0211 16.5 14.1251V10.5C16.5 5.67525 13.1355 1.75 9 1.75Z" fill="#B0E4DD"/>
</svg>
