<svg width="14" height="14" viewBox="0 0 14 14" fill="none" xmlns="http://www.w3.org/2000/svg">
<g clip-path="url(#clip0_368_486)">
<path d="M7 0C5.14391 0 3.36219 0.737953 2.05078 2.05023C0.738032 3.36304 0.000375647 5.14345 0 7C0 8.85577 0.738281 10.6375 2.05078 11.9498C3.36219 13.262 5.14391 14 7 14C8.85609 14 10.6378 13.262 11.9492 11.9498C13.2617 10.6375 14 8.85577 14 7C14 5.14423 13.2617 3.36252 11.9492 2.05023C10.6378 0.737953 8.85609 0 7 0Z" fill="url(#paint0_linear_368_486)"/>
<path d="M3.16849 6.92603C5.20943 6.03703 6.57006 5.45092 7.25037 5.16771C9.19506 4.3591 9.59865 4.21867 9.86224 4.21391C9.92021 4.21298 10.0493 4.22731 10.1335 4.29539C10.2035 4.35281 10.2232 4.43047 10.233 4.48499C10.2418 4.53946 10.2538 4.6636 10.244 4.76051C10.139 5.86739 9.68287 8.55342 9.45099 9.79318C9.35365 10.3177 9.16006 10.4936 8.97303 10.5108C8.56615 10.5482 8.25771 10.2422 7.86396 9.98415C7.24818 9.58023 6.90037 9.32889 6.30209 8.93481C5.61084 8.47937 6.05928 8.22901 6.45303 7.81995C6.55584 7.71287 8.3474 6.08373 8.38131 5.93596C8.38568 5.91748 8.39006 5.84857 8.34849 5.81226C8.30803 5.77584 8.24787 5.78831 8.20412 5.79815C8.14178 5.81215 7.15849 6.46271 5.25099 7.74973C4.97209 7.94157 4.71943 8.03509 4.49193 8.03017C4.24256 8.02481 3.76131 7.88885 3.40365 7.7727C2.96615 7.63018 2.61724 7.55482 2.64787 7.31278C2.66318 7.18678 2.83709 7.05782 3.16849 6.92603Z" fill="white"/>
</g>
<defs>
<linearGradient id="paint0_linear_368_486" x1="700" y1="0" x2="700" y2="1400" gradientUnits="userSpaceOnUse">
<stop stop-color="#2AABEE"/>
<stop offset="1" stop-color="#229ED9"/>
</linearGradient>
<clipPath id="clip0_368_486">
<rect width="14" height="14" fill="white"/>
</clipPath>
</defs>
</svg>
