<svg width="10" height="8" viewBox="0 0 10 8" fill="none" xmlns="http://www.w3.org/2000/svg">
<path d="M4.84961 0.427856C5.2165 0.522972 5.54142 0.737221 5.77338 1.03698C6.00533 1.33673 6.13119 1.70502 6.13119 2.08404C6.13119 2.46306 6.00533 2.83136 5.77338 3.13111C5.54142 3.43087 5.2165 3.64512 4.84961 3.74023M6.41602 7.41614V6.56067C6.41602 6.1069 6.23576 5.67172 5.91489 5.35085C5.59403 5.02999 5.15885 4.84973 4.70508 4.84973H2.13867C1.6849 4.84973 1.24972 5.02999 0.928856 5.35085C0.607993 5.67172 0.427734 6.1069 0.427734 6.56067V7.41614M8.69922 7.36053V6.50506C8.69894 6.12597 8.57276 5.75771 8.34051 5.4581C8.10825 5.15849 7.78307 4.9445 7.41602 4.84973M3.84961 2.13879C3.84961 3.08372 3.0836 3.84973 2.13867 3.84973C1.19375 3.84973 0.427734 3.08372 0.427734 2.13879C0.427734 1.19387 1.19375 0.427856 2.13867 0.427856C3.0836 0.427856 3.84961 1.19387 3.84961 2.13879Z" stroke="#B0E4DD" stroke-opacity="0.3" stroke-width="0.855469" stroke-linecap="round" stroke-linejoin="round"/>
</svg>
