<svg width="27" height="27" viewBox="0 0 27 27" fill="none" xmlns="http://www.w3.org/2000/svg">
<path d="M17.0249 14.1792L18.6914 23.5578C18.7101 23.6682 18.6946 23.7817 18.647 23.8831C18.5994 23.9845 18.522 24.069 18.4251 24.1252C18.3283 24.1814 18.2165 24.2067 18.1049 24.1977C17.9933 24.1887 17.887 24.1458 17.8004 24.0748L13.8624 21.1191C13.6723 20.9771 13.4414 20.9003 13.2041 20.9003C12.9668 20.9003 12.7358 20.9771 12.5457 21.1191L8.60111 24.0737C8.51457 24.1446 8.40846 24.1874 8.29696 24.1964C8.18546 24.2054 8.07385 24.1802 7.97704 24.1242C7.88023 24.0681 7.80282 23.9839 7.75513 23.8827C7.70743 23.7815 7.69173 23.6681 7.71011 23.5578L9.37551 14.1792" stroke="#FFB900" stroke-width="2.2" stroke-linecap="round" stroke-linejoin="round"/>
<path d="M13.2001 15.4002C16.8452 15.4002 19.8001 12.4453 19.8001 8.80019C19.8001 5.15512 16.8452 2.2002 13.2001 2.2002C9.55502 2.2002 6.6001 5.15512 6.6001 8.80019C6.6001 12.4453 9.55502 15.4002 13.2001 15.4002Z" stroke="#FFB900" stroke-width="2.2" stroke-linecap="round" stroke-linejoin="round"/>
</svg>
